Coordinates
version=1
nRows=38
nColumns=12
inDegrees=yes

Units are S.I. units (second, meters, Newtons, ...)
Angles are in degrees

endheader
time	SC_y	SC_z	SC_x	AC_y	AC_z	AC_x	GH_y	GH_z	GH_yy	EL_x	PS_y
       0.0              -19.74          25.78          71.19          37.05           4.35          5.418          94.81          48.62          153.2          49.84          7.958
   0.03651              -19.75          25.78          71.18          37.05          4.347          5.417          94.81          48.62          153.2          49.85          7.974
   0.07302              -19.75          25.78          71.17          37.06          4.343          5.416          94.81          48.62          153.1          49.87           7.99
    0.1095              -19.76          25.78          71.16          37.06           4.34          5.415          94.82          48.62          153.1          49.88          8.008
     0.146              -19.76          25.78          71.15          37.07          4.335          5.414          94.82          48.63          153.0          49.89          8.027
    0.1825              -19.77          25.78          71.14          37.07          4.331          5.412          94.82          48.63          153.0           49.9          8.047
    0.2191              -19.78          25.78          71.12          37.08          4.326          5.411          94.82          48.64          152.9          49.92          8.068
    0.2556              -19.79          25.78          71.11          37.08          4.321          5.409          94.82          48.64          152.9          49.93          8.091
    0.2921              -19.79          25.78           71.1          37.09          4.316          5.408          94.82          48.64          152.8          49.95          8.116
    0.3286               -19.8          25.78          71.08           37.1           4.31          5.406          94.82          48.65          152.8          49.97          8.142
    0.3651              -19.81          25.78          71.06          37.11          4.304          5.404          94.83          48.65          152.7          49.99           8.17
    0.4016              -19.82          25.77          71.04          37.11          4.297          5.402          94.83          48.66          152.6          50.01            8.2
    0.4381              -19.83          25.77          71.02          37.12           4.29          5.399          94.83          48.67          152.5          50.03          8.233
    0.4746              -19.84          25.77           71.0          37.13          4.282          5.397          94.83          48.67          152.5          50.06          8.268
    0.5111              -19.86          25.77          70.98          37.14          4.274          5.394          94.84          48.68          152.4          50.08          8.307
    0.5476              -19.87          25.77          70.95          37.15          4.265          5.392          94.84          48.69          152.3          50.11          8.348
    0.5842              -19.88          25.77          70.92          37.17          4.255          5.388          94.84           48.7          152.2          50.14          8.393
    0.6207               -19.9          25.76          70.89          37.18          4.244          5.385          94.85           48.7          152.0          50.18          8.442
    0.6572              -19.92          25.76          70.86          37.19          4.232          5.381          94.85          48.71          151.9          50.21          8.496
    0.6937              -19.94          25.76          70.82          37.21          4.219          5.377          94.85          48.72          151.8          50.25          8.555
    0.7302              -19.96          25.76          70.78          37.23          4.205          5.373          94.86          48.74          151.6           50.3          8.619
    0.7667              -19.98          25.75          70.73          37.25           4.19          5.368          94.86          48.75          151.4          50.35           8.69
    0.8032              -20.01          25.75          70.69          37.27          4.173          5.363          94.87          48.76          151.3           50.4          8.768
    0.8397              -20.03          25.75          70.63          37.29          4.153          5.357          94.87          48.78          151.0          50.46          8.855
    0.8762              -20.07          25.74          70.57          37.32          4.132           5.35          94.88           48.8          150.8          50.53          8.952
    0.9127               -20.1          25.74           70.5          37.35          4.109          5.343          94.89          48.82          150.6           50.6          9.059
    0.9493              -20.14          25.73          70.43          37.38          4.082          5.334           94.9          48.84          150.3          50.68           9.18
    0.9858              -20.19          25.73          70.34          37.42          4.052          5.325          94.91          48.86          149.9          50.78          9.315
     1.022              -20.24          25.72          70.25          37.46          4.019          5.315          94.92          48.89          149.6          50.88          9.469
     1.059              -20.29          25.71          70.14          37.51           3.98          5.303          94.93          48.92          149.1           51.0          9.643
     1.095              -20.36           25.7          70.01          37.56          3.937          5.289          94.94          48.96          148.7          51.14          9.842
     1.132              -20.43          25.69          69.87          37.62          3.887          5.273          94.96           49.0          148.1          51.29          10.07
     1.168              -20.52          25.68           69.7          37.69          3.829          5.255          94.98          49.05          147.5          51.48          10.33
     1.205              -20.62          25.67          69.51          37.78          3.762          5.234           95.0           49.1          146.7          51.69          10.64
     1.241              -20.74          25.65          69.29          37.87          3.683           5.21          95.03          49.17          145.9          51.93           11.0
     1.278              -20.87          25.63          69.02          37.99           3.59          5.181          95.06          49.25          144.9          52.22          11.42
     1.314              -21.04          25.61          68.71          38.12           3.48          5.146          95.09          49.34          143.6          52.57          11.92
     1.351              -21.23          25.59          68.33          38.29          3.348          5.105          95.13          49.45          142.2          52.98          12.52
